<svg xmlns="http://www.w3.org/2000/svg" xwidth="129" xheight="56" viewBox="0 0 129 56" id="main">
  <g class="-text">
    <path d="M8.38 24v-1.33c-.68.91-1.85 1.53-3.26 1.53-.85 0-1.8-.22-2.69-.85C1.24 22.51.5 21.1.5 19.48c0-1.51.66-2.84 1.69-3.71.75-.62 1.78-1.02 2.87-1.02 1.31 0 2.5.54 3.32 1.45v-1.25h1.09V24H8.38Zm-.04-6.35c-.4-.67-1.59-1.82-3.25-1.82-.76 0-1.55.25-2.19.77-.79.65-1.27 1.71-1.27 2.88 0 1.25.56 2.36 1.43 2.97.58.4 1.27.68 2.04.68 1.33 0 2.52-.76 3.24-1.99v-3.49Zm3.91 11.11V14.95h1.09v1.25c.81-.91 2.01-1.45 3.31-1.45 1.1 0 2.13.4 2.88 1.02 1.03.87 1.69 2.2 1.69 3.71 0 1.62-.74 3.03-1.93 3.87-.89.63-1.84.85-2.69.85-1.41 0-2.54-.62-3.22-1.49v6.05h-1.13Zm1.13-7.62c.72 1.23 1.91 1.99 3.23 1.99.78 0 1.47-.28 2.05-.68.87-.61 1.43-1.72 1.43-2.97 0-1.17-.48-2.23-1.27-2.88-.64-.52-1.43-.77-2.18-.77-1.67 0-2.86 1.15-3.26 1.82v3.49Zm9.83 7.62V14.95h1.09v1.25c.81-.91 2-1.45 3.31-1.45 1.09 0 2.12.4 2.88 1.02 1.03.87 1.68 2.2 1.68 3.71 0 1.62-.73 3.03-1.92 3.87-.89.63-1.84.85-2.7.85-1.41 0-2.54-.62-3.21-1.49v6.05h-1.13Zm1.13-7.62c.71 1.23 1.9 1.99 3.23 1.99.77 0 1.47-.28 2.04-.68.88-.61 1.43-1.72 1.43-2.97 0-1.17-.47-2.23-1.27-2.88-.63-.52-1.43-.77-2.18-.77-1.67 0-2.86 1.15-3.25 1.82v3.49Zm17.46 1.39c-.67.86-1.96 1.67-3.69 1.67-2.54 0-4.54-1.91-4.54-4.72 0-2.6 1.76-4.73 4.32-4.73 2.42 0 4.21 1.91 4.21 4.43 0 .08 0 .22-.02.4H34.7c.08 1.92 1.33 3.55 3.41 3.55 1.19 0 2.18-.48 2.9-1.35l.79.75Zm-7.04-3.99h6.17c-.24-1.58-1.47-2.71-3.04-2.71-1.61 0-2.8 1.15-3.13 2.71ZM45.18 16.22c.73-.97 1.92-1.47 3.19-1.47 1.31 0 2.48.54 3.21 1.53.5.66.78 1.41.78 2.9V24h-1.13v-4.74c0-1.19-.2-1.77-.52-2.22-.51-.76-1.37-1.21-2.36-1.21-1.31 0-2.44.69-3.13 1.88V24h-1.14v-9.05h1.1v1.27Zm14.9-.2h-5.53v-1.07h7.24v.68l-6.05 7.3h6.24V24h-7.93v-.67l6.03-7.31ZM71.11 22.53c-.67.86-1.96 1.67-3.69 1.67-2.54 0-4.54-1.91-4.54-4.72 0-2.6 1.77-4.73 4.33-4.73 2.42 0 4.2 1.91 4.2 4.43 0 .08 0 .22-.02.4h-7.38c.08 1.92 1.33 3.55 3.41 3.55 1.19 0 2.19-.48 2.9-1.35l.79.75Zm-7.04-3.99h6.17c-.24-1.58-1.47-2.71-3.03-2.71-1.61 0-2.8 1.15-3.14 2.71ZM73.4 9.91h1.13V24H73.4V9.91Zm3.91 0h1.13V24h-1.13V9.91ZM88.66 22.53c-.68.86-1.97 1.67-3.69 1.67-2.54 0-4.55-1.91-4.55-4.72 0-2.6 1.77-4.73 4.33-4.73 2.42 0 4.21 1.91 4.21 4.43 0 .08 0 .22-.03.4h-7.37c.07 1.92 1.32 3.55 3.41 3.55 1.19 0 2.18-.48 2.89-1.35l.8.75Zm-7.05-3.99h6.18c-.24-1.58-1.47-2.71-3.04-2.71-1.61 0-2.8 1.15-3.14 2.71ZM95.45 15.85c-.12-.02-.48-.02-.54-.02-1.23 0-2.36.83-2.84 2V24h-1.13v-9.05h1.13v1.19c.42-.63 1.45-1.39 2.86-1.39.16 0 .56.02.68.04l-.16 1.06ZM1.29 28.15v14.09h1.14v-4.78l5.13 4.78h1.59l-5.37-4.98 4.96-4.07H7.05l-4.62 3.77v-8.81H1.29ZM13.92 42.44c-2.7 0-4.67-2.13-4.67-4.72 0-2.6 1.97-4.73 4.67-4.73 2.69 0 4.66 2.13 4.66 4.73 0 2.59-1.97 4.72-4.66 4.72Zm0-8.38c-2.05 0-3.54 1.63-3.54 3.66 0 2.02 1.49 3.65 3.54 3.65 2.04 0 3.53-1.63 3.53-3.65 0-2.03-1.49-3.66-3.53-3.66ZM21.66 34.46c.73-.97 1.92-1.47 3.19-1.47 1.31 0 2.48.54 3.22 1.53.49.66.77 1.41.77 2.9v4.82h-1.13V37.5c0-1.19-.2-1.77-.52-2.23-.51-.75-1.37-1.21-2.36-1.21-1.31 0-2.44.7-3.13 1.89v6.29h-1.13v-9.05h1.09v1.27Zm14.82-.2h-3.07v4.96c0 .82.16 1.21.39 1.51.32.4.84.64 1.51.64.26 0 .64-.02.97-.12l.2 1.03c-.29.1-.81.16-1.17.16-.83 0-1.8-.26-2.42-1.04-.4-.49-.61-1.15-.61-2.22v-4.92h-2.54v-1.07h2.54v-2.46h1.13v2.46h3.07v1.07ZM45.45 42.24v-1.33c-.67.91-1.84 1.53-3.25 1.53-.85 0-1.81-.22-2.7-.86-1.19-.83-1.92-2.24-1.92-3.87 0-1.5.65-2.83 1.68-3.71.76-.61 1.79-1.01 2.88-1.01 1.31 0 2.5.54 3.31 1.45v-1.25h1.1v9.05h-1.1Zm-.04-6.35c-.39-.68-1.58-1.83-3.25-1.83-.75 0-1.55.26-2.18.78-.8.65-1.27 1.7-1.27 2.87 0 1.26.55 2.37 1.42 2.98.58.4 1.28.68 2.05.68 1.33 0 2.52-.76 3.23-1.99v-3.49ZM55.59 42.24l-5.13-4.78v4.78h-1.13V28.15h1.13v8.81l4.62-3.77h1.69l-4.96 4.07 5.37 4.98h-1.59Zm8.74-7.98h-3.08v4.96c0 .82.16 1.21.4 1.51.32.4.83.64 1.51.64.25 0 .63-.02.97-.12l.2 1.03c-.3.1-.82.16-1.17.16-.84 0-1.81-.26-2.42-1.04-.4-.49-.62-1.15-.62-2.22v-4.92h-2.54v-1.07h2.54v-2.46h1.13v2.46h3.08v1.07Zm2.18-6.11h1.13v14.09h-1.13V28.15Zm4.47.89c.55 0 1.01.46 1.01 1.02 0 .55-.46.99-1.01.99-.56 0-1-.44-1-.99 0-.56.44-1.02 1-1.02Zm-.56 4.15h1.13v9.05h-1.13v-9.05Zm5 1.27c.74-.97 1.93-1.47 3.2-1.47 1.31 0 2.48.54 3.21 1.53.5.66.77 1.41.77 2.9v4.82h-1.13V37.5c0-1.19-.19-1.77-.51-2.23-.52-.75-1.37-1.21-2.36-1.21-1.31 0-2.44.7-3.14 1.89v6.29h-1.13v-9.05h1.09v1.27Zm9.57 5.81c.77.66 1.73 1.1 2.74 1.1 1.13 0 2.08-.64 2.08-1.59 0-2.32-5.22-1.05-5.22-4.15 0-1.64 1.55-2.64 3.08-2.64 1.23 0 2.24.42 2.92.88l-.6.93c-.77-.5-1.33-.74-2.26-.74-.95 0-2.01.5-2.01 1.55 0 2.01 5.22.93 5.22 4.11 0 1.68-1.43 2.72-3.13 2.72-1.51 0-2.72-.56-3.51-1.29l.69-.88ZM100.47 40.77c-.68.85-1.97 1.67-3.69 1.67-2.54 0-4.55-1.91-4.55-4.73 0-2.59 1.77-4.72 4.33-4.72 2.42 0 4.21 1.91 4.21 4.43 0 .08 0 .22-.03.39h-7.38c.08 1.93 1.33 3.56 3.42 3.56 1.19 0 2.18-.48 2.89-1.35l.8.75Zm-7.05-3.99h6.17c-.23-1.58-1.46-2.72-3.03-2.72-1.61 0-2.8 1.15-3.14 2.72ZM103.84 34.46c.74-.97 1.93-1.47 3.2-1.47 1.31 0 2.48.54 3.21 1.53.5.66.78 1.41.78 2.9v4.82h-1.13V37.5c0-1.19-.2-1.77-.52-2.23-.52-.75-1.37-1.21-2.36-1.21-1.31 0-2.44.7-3.14 1.89v6.29h-1.13v-9.05h1.09v1.27Z"/>
  </g>
  <path d="M103.8 55.34V49h.5v.57c.37-.42.92-.66 1.52-.66.5 0 .98.18 1.32.46.48.4.78 1.01.78 1.71 0 .75-.34 1.39-.89 1.78-.41.29-.84.39-1.24.39-.64 0-1.16-.29-1.47-.69v2.78h-.52Zm.52-3.5c.33.57.87.91 1.48.91.36 0 .68-.12.94-.31.4-.28.66-.79.66-1.36 0-.54-.22-1.02-.58-1.33-.3-.23-.66-.35-1.01-.35-.76 0-1.31.53-1.49.84v1.6Zm7.86 1.32v-.61c-.31.41-.85.7-1.5.7-.39 0-.83-.1-1.24-.39-.54-.39-.88-1.03-.88-1.78 0-.7.3-1.31.77-1.71.35-.28.82-.46 1.32-.46.61 0 1.15.24 1.53.66V49h.5v4.16h-.5Zm-.02-2.92c-.18-.31-.73-.84-1.5-.84-.34 0-.71.12-1 .35-.36.31-.58.79-.58 1.33 0 .57.25 1.08.65 1.36.27.19.59.31.94.31.61 0 1.16-.34 1.49-.91v-1.6Zm1.71 2.01c.35.3.79.5 1.25.5.52 0 .96-.29.96-.72 0-1.07-2.4-.49-2.4-1.91 0-.76.72-1.21 1.42-1.21.56 0 1.03.19 1.34.4l-.28.43c-.35-.23-.61-.34-1.04-.34-.43 0-.92.23-.92.71 0 .92 2.4.43 2.4 1.89 0 .77-.66 1.25-1.44 1.25-.69 0-1.25-.26-1.61-.59l.32-.41Zm3.6 0c.35.3.79.5 1.26.5.52 0 .95-.29.95-.72 0-1.07-2.39-.49-2.39-1.91 0-.76.71-1.21 1.41-1.21.56 0 1.03.19 1.34.4l-.27.43c-.36-.23-.62-.34-1.04-.34-.44 0-.92.23-.92.71 0 .92 2.39.43 2.39 1.89 0 .77-.65 1.25-1.44 1.25-.69 0-1.25-.26-1.61-.59l.32-.41Zm6.06-2.76h-1.41v2.28c0 .37.07.56.18.69.15.18.38.29.69.29.12 0 .3 0 .45-.05l.09.48c-.13.04-.37.07-.54.07-.38 0-.83-.12-1.11-.48-.18-.22-.28-.53-.28-1.02v-2.26h-1.17V49h1.17v-1.13h.52V49h1.41v.49Zm1.31 2.81c.26 0 .47.21.47.47 0 .27-.21.48-.47.48-.27 0-.48-.21-.48-.48 0-.26.21-.47.48-.47Z" class="-passt"/>
  <path d="M115.09 30.04c1.45 0 2.63 1.18 2.63 2.63s-1.18 2.63-2.63 2.63-2.63-1.18-2.63-2.63 1.18-2.63 2.63-2.63Zm0 4.9c1.24 0 2.27-1.03 2.27-2.27 0-1.25-1.03-2.28-2.27-2.28-1.25 0-2.28 1.03-2.28 2.28 0 1.24 1.03 2.27 2.28 2.27Zm.76-.85-.97-1.41h-.38v1.41h-.35v-2.88h.99c.35 0 .53.08.67.22.13.13.22.31.22.52 0 .2-.09.39-.22.52-.12.12-.26.18-.52.21l.95 1.41h-.39Zm-.73-1.74c.27 0 .38-.05.45-.14.07-.07.1-.17.1-.26 0-.1-.03-.2-.1-.27-.07-.09-.18-.14-.45-.14h-.62v.81h.62Zm13.09-17.45c-.27 7.72-6.35 13.42-14.1 13.15-7.75-.27-13.41-6.38-13.14-14.1.27-7.72 6.34-13.42 14.09-13.15 7.76.27 13.42 6.38 13.15 14.1Zm-.29-.01c.26-7.42-5.19-13.3-12.64-13.56-7.46-.26-13.3 5.22-13.56 12.65-.26 7.42 5.19 13.29 12.64 13.55 7.46.26 13.3-5.21 13.56-12.64Z" class="-circle"/>
</svg>
